<svg xmlns="http://www.w3.org/2000/svg" viewBox="0 0 100 100" xml:space="preserve"><path fill="#15803d" d="M75 30.1C75 16.3 63.9 5 50 5S25 16.3 25 30.1v8.5c-6.2.9-10.8 6.1-10.8 12.6v31C14.1 89.3 19.8 95 27 95h46.1c7.1 0 12.8-5.7 12.8-12.9v-31c0-6.5-4.7-11.6-10.8-12.6v-8.4zM52.6 80.5c0 1.4-1.1 2.6-2.6 2.6-1.3 0-2.5-1.2-2.5-2.6V67.4c-3-1.2-5.2-3.9-5.2-7.3 0-4.3 3.5-7.7 7.7-7.7s7.7 3.5 7.7 7.7c0 3.5-2.2 6.2-5.1 7.3v13.1zM34.1 38.4v-8.3c0-8.9 7-15.9 15.8-15.9 8.9 0 15.9 7 15.9 15.9v8.3H34.1z"/></svg>