<svg xmlns="http://www.w3.org/2000/svg" viewBox="0 0 100 100" xml:space="preserve"><path fill="#15803d" d="M33.7 41.6 31 33.1c-1.3-3.8-1.1-7.7.8-11.4 1.9-3.4 5-6.1 8.9-7.3 3.7-1.3 7.8-.9 11.3 1.1 3.6 1.8 6.1 4.9 7.4 8.7.8 2.2 2.9 3.4 5.3 2.7 2.3-.7 3.7-3.1 3-5.4-2-5.9-6.1-10.8-11.8-13.8C50.4 4.9 44 4.3 38 6.2c-6.1 1.9-11 6.1-14 11.7-2.8 5.4-3.3 11.9-1.5 17.9l2 6.3c-4.9 1.7-8.5 6.2-8.5 11.6v29.1c0 6.8 5.4 12.1 12.1 12.1h43.3c6.5 0 12.1-5.3 12.1-12.1V53.6c0-6.6-5.6-12.1-12.1-12.1H33.7zm18.6 39.8c0 1.3-1 2.4-2.2 2.4-1.3 0-2.5-1-2.5-2.4V68.9c-2.9-1-4.9-3.6-4.9-6.9 0-3.8 3.3-7.1 7.4-7.1 3.8 0 7 3.3 7 7.1 0 3.3-2 5.9-4.8 6.9v12.5z"/></svg>